<?xml version="1.0" standalone="no"?>
<!DOCTYPE svg PUBLIC "-//W3C//DTD SVG 20010904//EN"
 "http://www.w3.org/TR/2001/REC-SVG-20010904/DTD/svg10.dtd">
<svg version="1.0" xmlns="http://www.w3.org/2000/svg"
 width="2438.000000pt" height="2438.000000pt" viewBox="0 0 2438.000000 2438.000000"
 preserveAspectRatio="xMidYMid meet">
<metadata>
Created by potrace 1.11, written by Peter Selinger 2001-2013
</metadata>
<g transform="translate(0.000000,2438.000000) scale(0.100000,-0.100000)"
fill="#000000" stroke="none">
<path d="M1040 12190 l0 -10840 11145 0 11145 0 0 10840 0 10840 -11145 0
-11145 0 0 -10840z m5590 6530 c1152 -51 1946 -271 2610 -721 549 -372 899
-825 1110 -1434 211 -611 247 -1369 95 -1982 -224 -906 -806 -1618 -1667
-2041 l-178 -87 3 -39 2 -38 105 -33 c378 -115 784 -329 1088 -571 128 -102
379 -354 480 -482 382 -482 607 -1053 683 -1732 17 -147 17 -613 0 -785 -74
-777 -320 -1409 -761 -1960 -130 -162 -431 -465 -569 -575 -748 -590 -1800
-908 -3276 -990 -647 -36 -1651 -17 -2445 45 -196 16 -617 60 -678 71 l-32 6
2 6551 3 6551 110 23 c399 82 923 150 1460 187 569 40 1398 56 1855 36z
m13039 -5085 c361 -51 679 -182 963 -396 116 -87 329 -304 423 -431 462 -618
721 -1469 807 -2653 27 -370 14 -1104 -28 -1565 -131 -1464 -589 -2489 -1335
-2990 -381 -257 -873 -388 -1369 -366 -589 27 -1042 223 -1440 625 -322 325
-561 744 -749 1311 -343 1035 -418 2595 -181 3766 279 1377 938 2306 1850
2608 178 58 342 91 550 110 91 8 398 -3 509 -19z m-5849 -55 c855 -71 1414
-303 1812 -754 295 -334 441 -727 479 -1292 53 -783 -173 -1436 -658 -1905
-162 -156 -341 -284 -528 -376 -41 -21 -75 -43 -75 -50 0 -7 35 -28 77 -48
390 -180 653 -543 819 -1132 46 -163 71 -283 148 -703 165 -897 329 -1601 442
-1894 19 -48 34 -90 34 -92 0 -2 -376 -4 -835 -4 l-834 0 -30 94 c-113 351
-243 1002 -360 1802 -79 536 -158 827 -282 1038 -60 102 -186 224 -277 270
-115 58 -208 76 -429 83 l-193 6 0 -1646 0 -1647 -800 0 -800 0 0 4054 0 4055
53 10 c333 68 784 116 1372 145 127 6 738 -3 865 -14z"/>
<path d="M6145 16779 c-103 -9 -284 -41 -329 -59 l-26 -10 0 -1761 0 -1761
383 5 c419 5 469 10 671 78 417 139 787 492 969 926 125 297 172 540 171 883
-1 379 -58 662 -189 936 -74 156 -142 253 -264 375 -200 201 -428 317 -731
371 -132 23 -485 33 -655 17z"/>
<path d="M5792 9268 l3 -2003 65 -13 c95 -19 588 -28 736 -13 698 70 1224 419
1490 987 86 182 144 391 180 639 22 147 25 532 6 675 -65 485 -238 863 -532
1160 -211 214 -459 367 -745 459 -277 91 -439 111 -882 111 l-323 0 2 -2002z"/>
<path d="M19154 12255 c-374 -81 -644 -568 -778 -1405 -66 -406 -96 -855 -96
-1415 0 -1056 116 -1838 340 -2300 137 -281 323 -455 535 -500 437 -92 748
287 915 1115 175 872 186 2423 24 3310 -70 382 -183 706 -314 901 -159 236
-392 345 -626 294z"/>
<path d="M13385 12349 c-107 -6 -140 -10 -217 -30 l-38 -10 0 -1230 0 -1231
233 4 c209 5 242 8 328 31 422 112 707 456 793 957 36 208 30 484 -14 697 -93
447 -342 711 -746 792 -120 23 -194 28 -339 20z"/>
</g>
</svg>
